<svg height="512pt" viewBox="-45 0 512 512" width="512pt" xmlns="http://www.w3.org/2000/svg"><path d="m422.140625 127.925781v344.378907c0 21.921874-17.777344 39.695312-39.699219 39.695312h-342.746094c-21.921874 0-39.695312-17.773438-39.695312-39.695312v-432.609376c0-21.921874 17.773438-39.695312 39.695312-39.695312h254.515626c10.535156 0 20.628906 4.179688 28.078124 11.628906l88.21875 88.222656c7.453126 7.449219 11.632813 17.542969 11.632813 28.074219zm0 0" fill="#e2eff2"/><path d="m422.140625 127.925781v27c0-23.988281-19.457031-43.445312-43.449219-43.445312h-28.335937c-21.921875 0-39.695313-17.773438-39.695313-39.695313v-28.339844c0-23.988281-19.457031-43.445312-43.449218-43.445312h27c10.535156 0 20.628906 4.179688 28.078124 11.628906l88.21875 88.222656c7.453126 7.449219 11.632813 17.542969 11.632813 28.074219zm0 0" fill="#bbd8dd"/><path d="m182.191406 274.359375h-139.535156c0-19.269531 7.816406-36.707031 20.4375-49.339844 12.621094-12.625 30.074219-20.429687 49.328125-20.429687 5.269531 0 10.398437.585937 15.332031 1.691406.175782.03125.34375.074219.519532.117188 12.90625 3 24.429687 9.582031 33.480468 18.621093 12.621094 12.632813 20.4375 30.070313 20.4375 49.339844zm0 0" fill="#d61e4f"/><path d="m182.191406 274.359375h-108.878906c0-19.269531 7.804688-36.707031 20.429688-49.339844 9.183593-9.175781 20.898437-15.8125 34.011718-18.738281.175782.03125.34375.074219.519532.117188 12.90625 3 24.429687 9.582031 33.480468 18.621093 12.621094 12.632813 20.4375 30.070313 20.4375 49.339844zm0 0" fill="#fc315f"/><path d="m182.191406 119.632812v47.507813c0 34-24.320312 62.316406-56.515625 68.503906-4.289062.828125-8.722656 1.257813-13.253906 1.257813-38.527344 0-69.757813-31.230469-69.757813-69.761719v-47.507813c0-38.53125 31.230469-69.765624 69.757813-69.765624 4.535156 0 8.964844.429687 13.253906 1.257812 13.953125 2.679688 26.425781 9.519531 36.082031 19.175781 12.621094 12.625 20.433594 30.066407 20.433594 49.332031zm0 0" fill="#ffd0a6"/><path d="m126.023438 235.570312c-.117188.03125-.230469.054688-.34375.074219-4.296876.824219-8.726563 1.253907-13.25 1.253907-38.535157 0-69.769532-31.230469-69.769532-69.757813v-47.511719c0-38.523437 31.234375-69.765625 69.769532-69.765625 4.523437 0 8.953124.4375 13.25 1.261719.101562.023438.21875.042969.324218.0625-32.027344 6.324219-56.175781 34.566406-56.175781 68.441406v47.511719c0 33.886719 24.160156 62.121094 56.195313 68.429687zm0 0" fill="#e8b182"/><path d="m112.425781 200.191406c-8.425781 0-16.855469-3.207031-23.269531-9.621094-2.242188-2.246093-2.242188-5.882812 0-8.128906 2.242188-2.242187 5.882812-2.242187 8.125 0 8.351562 8.351563 21.933594 8.351563 30.28125 0 2.242188-2.242187 5.886719-2.242187 8.128906 0 2.242188 2.246094 2.242188 5.882813 0 8.128906-6.414062 6.414063-14.839844 9.621094-23.265625 9.621094zm0 0" fill="#e8b182"/><path d="m182.191406 119.632812v10.300782c-82.59375-.105469-110.046875-33.882813-110.046875-33.882813 0 14.027344-14.03125 28.835938-29.484375 33.882813v-10.300782c0-38.53125 31.234375-69.769531 69.761719-69.769531 4.53125 0 8.964844.433594 13.253906 1.257813 13.953125 2.683594 26.421875 9.523437 36.078125 19.175781 12.625 12.628906 20.4375 30.070313 20.4375 49.335937zm0 0" fill="#5b5b68"/><path d="m125.992188 51.191406c-24.691407 4.878906-44.710938 22.777344-52.570313 46.257813-.875-.898438-1.285156-1.402344-1.285156-1.402344 0 14.035156-14.03125 28.839844-29.476563 33.886719v-10.300782c0-38.527343 31.234375-69.769531 69.757813-69.769531 4.535156 0 8.964843.4375 13.25 1.265625.105469.019532.21875.039063.324219.0625zm0 0" fill="#40404c"/><path d="m82.03125 168.222656c-3.171875 0-5.746094-2.574218-5.746094-5.75v-17.148437c0-3.171875 2.574219-5.746094 5.746094-5.746094 3.175781 0 5.75 2.574219 5.75 5.746094v17.148437c0 3.175782-2.574219 5.75-5.75 5.75zm0 0" fill="#40404c"/><path d="m142.820312 168.222656c-3.175781 0-5.75-2.574218-5.75-5.75v-17.148437c0-3.171875 2.574219-5.746094 5.75-5.746094 3.171876 0 5.746094 2.574219 5.746094 5.746094v17.148437c0 3.175782-2.574218 5.75-5.746094 5.75zm0 0" fill="#40404c"/><path d="m62.695312 399.429688h77.320313v70.769531h-77.320313zm0 0" fill="#fed563"/><path d="m172.40625 304.34375h77.324219v165.855469h-77.324219zm0 0" fill="#55c7f3"/><path d="m282.121094 340.917969h77.324218v129.28125h-77.324218zm0 0" fill="#fc315f"/><g fill="#40404c"><path d="m295.714844 261.292969h-71.050782c-4.328124 0-7.835937-3.511719-7.835937-7.839844s3.507813-7.835937 7.835937-7.835937h71.050782c4.332031 0 7.839844 3.507812 7.839844 7.835937s-3.507813 7.839844-7.839844 7.839844zm0 0"/><path d="m371.992188 221.484375h-147.328126c-4.328124 0-7.835937-3.511719-7.835937-7.839844s3.507813-7.835937 7.835937-7.835937h147.328126c4.332031 0 7.839843 3.507812 7.839843 7.835937s-3.507812 7.839844-7.839843 7.839844zm0 0"/><path d="m350.632812 181.675781h-125.96875c-4.328124 0-7.835937-3.511719-7.835937-7.839843 0-4.328126 3.507813-7.835938 7.835937-7.835938h125.96875c4.328126 0 7.835938 3.507812 7.835938 7.835938 0 4.328124-3.507812 7.839843-7.835938 7.839843zm0 0"/><path d="m287.941406 141.863281h-63.277344c-4.328124 0-7.835937-3.507812-7.835937-7.835937s3.507813-7.835938 7.835937-7.835938h63.277344c4.332032 0 7.835938 3.507813 7.835938 7.835938s-3.507813 7.835937-7.835938 7.835937zm0 0"/></g></svg>