<svg id="Layer_1" enable-background="new 0 0 512.186 512.186" height="512" viewBox="0 0 512.186 512.186" width="512" xmlns="http://www.w3.org/2000/svg"><g><g><ellipse cx="256.093" cy="256.093" fill="#ffeb00" rx="256.093" ry="256.008"/><path d="m256.093.085c-.03 0-.061.001-.091.001v512.013c.03 0 .061.001.091.001 141.436 0 256.093-114.618 256.093-256.008s-114.657-256.007-256.093-256.007z" fill="#fb0"/><ellipse cx="159.433" cy="197.357" fill="#132c63" rx="38.935" ry="38.922"/><g><path d="m256.304 425.318c-67.649 0-128.338-41.688-154.612-106.206-3.319-8.15.597-17.448 8.748-20.767 8.152-3.321 17.449.597 20.767 8.747 21.364 52.46 70.467 86.357 125.097 86.357s103.733-33.897 125.097-86.357c3.319-8.15 12.614-12.069 20.767-8.747 8.151 3.319 12.067 12.617 8.748 20.767-26.274 64.518-86.963 106.206-154.612 106.206z" fill="#132c63"/></g><path d="m402.168 298.345c-8.153-3.321-17.449.597-20.767 8.747-21.364 52.46-70.467 86.357-125.097 86.357-.101 0-.201-.006-.302-.006v31.872c.101 0 .201.003.302.003 67.649 0 128.338-41.688 154.612-106.206 3.319-8.15-.597-17.448-8.748-20.767z" fill="#000f35"/></g><g><path d="m365.666 254.413c-2.545 0-5.124-.648-7.486-2.012l-65.643-37.899c-4.641-2.679-7.5-7.631-7.5-12.99s2.859-10.311 7.5-12.99l65.643-37.899c7.174-4.143 16.348-1.684 20.49 5.49s1.684 16.348-5.49 20.49l-43.143 24.909 43.143 24.909c7.174 4.142 9.632 13.316 5.49 20.49-2.778 4.812-7.82 7.502-13.004 7.502z" fill="#000f35"/></g></g></svg>